<mxfile host="app.diagrams.net" modified="2023-12-09T09:07:53.491Z" agent="Mozilla/5.0 (Windows NT 10.0; Win64; x64) AppleWebKit/537.36 (KHTML, like Gecko) Chrome/119.0.0.0 Safari/537.36" etag="7wK-6iMFEm8SoW02KWE8" version="22.1.7" type="device" pages="4">
  <diagram id="prtHgNgQTEPvFCAcTncT" name="Page-1">
    <mxGraphModel dx="2415" dy="2097" grid="1" gridSize="10" guides="1" tooltips="1" connect="1" arrows="1" fold="1" page="1" pageScale="1" pageWidth="827" pageHeight="1169" math="0" shadow="0">
      <root>
        <mxCell id="0" />
        <mxCell id="1" parent="0" />
        <mxCell id="dNxyNK7c78bLwvsdeMH5-19" value="" style="swimlane;html=1;childLayout=stackLayout;resizeParent=1;resizeParentMax=0;horizontal=0;startSize=20;horizontalStack=0;" parent="1" vertex="1">
          <mxGeometry x="267" y="550" width="560" height="470" as="geometry">
            <mxRectangle x="120" y="120" width="40" height="60" as="alternateBounds" />
          </mxGeometry>
        </mxCell>
        <mxCell id="dNxyNK7c78bLwvsdeMH5-27" value="" style="edgeStyle=orthogonalEdgeStyle;rounded=0;orthogonalLoop=1;jettySize=auto;html=1;dashed=1;endArrow=none;endFill=0;" parent="dNxyNK7c78bLwvsdeMH5-19" edge="1">
          <mxGeometry relative="1" as="geometry">
            <mxPoint x="180" y="90" as="sourcePoint" />
            <mxPoint x="180" y="90" as="targetPoint" />
          </mxGeometry>
        </mxCell>
        <mxCell id="dNxyNK7c78bLwvsdeMH5-35" style="edgeStyle=orthogonalEdgeStyle;rounded=0;orthogonalLoop=1;jettySize=auto;html=1;endArrow=classic;endFill=1;" parent="dNxyNK7c78bLwvsdeMH5-19" edge="1">
          <mxGeometry relative="1" as="geometry">
            <mxPoint x="300" y="80" as="sourcePoint" />
            <mxPoint x="300" y="80" as="targetPoint" />
          </mxGeometry>
        </mxCell>
        <mxCell id="zysLelXhh0DluJcw5pJy-2" value="" style="rounded=0;whiteSpace=wrap;html=1;" parent="1" vertex="1">
          <mxGeometry x="-90" y="-635" width="1350" height="820" as="geometry" />
        </mxCell>
        <mxCell id="_hNQ7ZMHxFC8y0_ebgMu-2" value="" style="edgeStyle=orthogonalEdgeStyle;rounded=0;orthogonalLoop=1;jettySize=auto;html=1;" parent="1" source="zysLelXhh0DluJcw5pJy-3" target="_hNQ7ZMHxFC8y0_ebgMu-1" edge="1">
          <mxGeometry relative="1" as="geometry" />
        </mxCell>
        <mxCell id="zysLelXhh0DluJcw5pJy-3" value="" style="ellipse;whiteSpace=wrap;html=1;aspect=fixed;fillColor=#000000;" parent="1" vertex="1">
          <mxGeometry x="-50" y="-361.25" width="20" height="20" as="geometry" />
        </mxCell>
        <mxCell id="zysLelXhh0DluJcw5pJy-7" value="добавление" style="text;html=1;strokeColor=none;fillColor=none;align=center;verticalAlign=middle;whiteSpace=wrap;rounded=0;fontSize=9;" parent="1" vertex="1">
          <mxGeometry x="-70" y="-330" width="60" height="20" as="geometry" />
        </mxCell>
        <mxCell id="_hNQ7ZMHxFC8y0_ebgMu-4" value="" style="edgeStyle=orthogonalEdgeStyle;rounded=0;orthogonalLoop=1;jettySize=auto;html=1;" parent="1" source="_hNQ7ZMHxFC8y0_ebgMu-1" target="_hNQ7ZMHxFC8y0_ebgMu-3" edge="1">
          <mxGeometry relative="1" as="geometry" />
        </mxCell>
        <mxCell id="_hNQ7ZMHxFC8y0_ebgMu-1" value="&lt;font style=&quot;font-size: 10px;&quot;&gt;определить&lt;br&gt;тип&lt;br&gt;корреспонденции&lt;/font&gt;" style="rounded=1;whiteSpace=wrap;html=1;" parent="1" vertex="1">
          <mxGeometry x="10" y="-371.25" width="90" height="40" as="geometry" />
        </mxCell>
        <mxCell id="Wdhy14L4bmP1Kjovpzes-2" style="edgeStyle=orthogonalEdgeStyle;rounded=0;orthogonalLoop=1;jettySize=auto;html=1;entryX=0;entryY=0.5;entryDx=0;entryDy=0;" parent="1" source="_hNQ7ZMHxFC8y0_ebgMu-3" target="_hNQ7ZMHxFC8y0_ebgMu-5" edge="1">
          <mxGeometry relative="1" as="geometry">
            <Array as="points">
              <mxPoint x="370" y="-360" />
              <mxPoint x="370" y="-565" />
            </Array>
          </mxGeometry>
        </mxCell>
        <mxCell id="Wdhy14L4bmP1Kjovpzes-3" value="письмо" style="edgeLabel;html=1;align=center;verticalAlign=middle;resizable=0;points=[];" parent="Wdhy14L4bmP1Kjovpzes-2" vertex="1" connectable="0">
          <mxGeometry x="0.4067" y="-1" relative="1" as="geometry">
            <mxPoint x="-1" as="offset" />
          </mxGeometry>
        </mxCell>
        <mxCell id="Wdhy14L4bmP1Kjovpzes-5" style="edgeStyle=orthogonalEdgeStyle;rounded=0;orthogonalLoop=1;jettySize=auto;html=1;entryX=0;entryY=0.5;entryDx=0;entryDy=0;" parent="1" source="_hNQ7ZMHxFC8y0_ebgMu-3" target="_hNQ7ZMHxFC8y0_ebgMu-41" edge="1">
          <mxGeometry relative="1" as="geometry">
            <Array as="points">
              <mxPoint x="420" y="-351" />
              <mxPoint x="420" y="-405" />
            </Array>
          </mxGeometry>
        </mxCell>
        <mxCell id="Wdhy14L4bmP1Kjovpzes-6" value="приказ" style="edgeLabel;html=1;align=center;verticalAlign=middle;resizable=0;points=[];" parent="Wdhy14L4bmP1Kjovpzes-5" vertex="1" connectable="0">
          <mxGeometry x="0.4584" y="2" relative="1" as="geometry">
            <mxPoint as="offset" />
          </mxGeometry>
        </mxCell>
        <mxCell id="Wdhy14L4bmP1Kjovpzes-7" style="edgeStyle=orthogonalEdgeStyle;rounded=0;orthogonalLoop=1;jettySize=auto;html=1;entryX=0;entryY=0.5;entryDx=0;entryDy=0;" parent="1" source="_hNQ7ZMHxFC8y0_ebgMu-3" target="_hNQ7ZMHxFC8y0_ebgMu-72" edge="1">
          <mxGeometry relative="1" as="geometry">
            <Array as="points">
              <mxPoint x="400" y="-340" />
              <mxPoint x="400" y="-225" />
            </Array>
          </mxGeometry>
        </mxCell>
        <mxCell id="Wdhy14L4bmP1Kjovpzes-8" value="постановление" style="edgeLabel;html=1;align=center;verticalAlign=middle;resizable=0;points=[];" parent="Wdhy14L4bmP1Kjovpzes-7" vertex="1" connectable="0">
          <mxGeometry x="0.2405" y="-1" relative="1" as="geometry">
            <mxPoint as="offset" />
          </mxGeometry>
        </mxCell>
        <mxCell id="Wdhy14L4bmP1Kjovpzes-9" style="edgeStyle=orthogonalEdgeStyle;rounded=0;orthogonalLoop=1;jettySize=auto;html=1;entryX=0;entryY=0.5;entryDx=0;entryDy=0;" parent="1" source="_hNQ7ZMHxFC8y0_ebgMu-3" target="_hNQ7ZMHxFC8y0_ebgMu-100" edge="1">
          <mxGeometry relative="1" as="geometry">
            <Array as="points">
              <mxPoint x="340" y="-330" />
              <mxPoint x="340" y="-55" />
            </Array>
          </mxGeometry>
        </mxCell>
        <mxCell id="Wdhy14L4bmP1Kjovpzes-10" value="жалоба" style="edgeLabel;html=1;align=center;verticalAlign=middle;resizable=0;points=[];" parent="Wdhy14L4bmP1Kjovpzes-9" vertex="1" connectable="0">
          <mxGeometry x="0.17" y="-1" relative="1" as="geometry">
            <mxPoint as="offset" />
          </mxGeometry>
        </mxCell>
        <mxCell id="_hNQ7ZMHxFC8y0_ebgMu-3" value="какой тип корресподенции?" style="rhombus;whiteSpace=wrap;html=1;fillColor=#FFFFFF;" parent="1" vertex="1">
          <mxGeometry x="160" y="-387.5" width="129" height="72.5" as="geometry" />
        </mxCell>
        <mxCell id="_hNQ7ZMHxFC8y0_ebgMu-26" value="" style="edgeStyle=orthogonalEdgeStyle;rounded=0;orthogonalLoop=1;jettySize=auto;html=1;" parent="1" source="_hNQ7ZMHxFC8y0_ebgMu-5" target="_hNQ7ZMHxFC8y0_ebgMu-25" edge="1">
          <mxGeometry relative="1" as="geometry" />
        </mxCell>
        <mxCell id="_hNQ7ZMHxFC8y0_ebgMu-27" value="Да" style="edgeLabel;html=1;align=center;verticalAlign=middle;resizable=0;points=[];" parent="_hNQ7ZMHxFC8y0_ebgMu-26" vertex="1" connectable="0">
          <mxGeometry x="-0.1678" y="-5" relative="1" as="geometry">
            <mxPoint as="offset" />
          </mxGeometry>
        </mxCell>
        <mxCell id="_hNQ7ZMHxFC8y0_ebgMu-29" style="edgeStyle=orthogonalEdgeStyle;rounded=0;orthogonalLoop=1;jettySize=auto;html=1;entryX=0;entryY=0.5;entryDx=0;entryDy=0;" parent="1" source="_hNQ7ZMHxFC8y0_ebgMu-5" target="_hNQ7ZMHxFC8y0_ebgMu-28" edge="1">
          <mxGeometry relative="1" as="geometry">
            <Array as="points">
              <mxPoint x="520" y="-490" />
            </Array>
          </mxGeometry>
        </mxCell>
        <mxCell id="_hNQ7ZMHxFC8y0_ebgMu-30" value="Нет" style="edgeLabel;html=1;align=center;verticalAlign=middle;resizable=0;points=[];" parent="_hNQ7ZMHxFC8y0_ebgMu-29" vertex="1" connectable="0">
          <mxGeometry x="0.3779" y="-2" relative="1" as="geometry">
            <mxPoint as="offset" />
          </mxGeometry>
        </mxCell>
        <mxCell id="_hNQ7ZMHxFC8y0_ebgMu-5" value="важное?" style="rhombus;whiteSpace=wrap;html=1;fillColor=#FFFFFF;" parent="1" vertex="1">
          <mxGeometry x="460" y="-600" width="120" height="70" as="geometry" />
        </mxCell>
        <mxCell id="_hNQ7ZMHxFC8y0_ebgMu-21" value="" style="edgeStyle=orthogonalEdgeStyle;rounded=0;orthogonalLoop=1;jettySize=auto;html=1;" parent="1" source="_hNQ7ZMHxFC8y0_ebgMu-15" edge="1">
          <mxGeometry relative="1" as="geometry">
            <mxPoint x="1221" y="-420" as="targetPoint" />
          </mxGeometry>
        </mxCell>
        <mxCell id="_hNQ7ZMHxFC8y0_ebgMu-15" value="&lt;font style=&quot;font-size: 10px;&quot;&gt;подтвердить&lt;br&gt;создание&lt;br&gt;письма&lt;/font&gt;" style="rounded=1;whiteSpace=wrap;html=1;" parent="1" vertex="1">
          <mxGeometry x="1081" y="-440" width="100" height="40" as="geometry" />
        </mxCell>
        <mxCell id="_hNQ7ZMHxFC8y0_ebgMu-31" style="edgeStyle=orthogonalEdgeStyle;rounded=0;orthogonalLoop=1;jettySize=auto;html=1;entryX=0.5;entryY=0;entryDx=0;entryDy=0;" parent="1" source="_hNQ7ZMHxFC8y0_ebgMu-25" target="_hNQ7ZMHxFC8y0_ebgMu-28" edge="1">
          <mxGeometry relative="1" as="geometry">
            <Array as="points">
              <mxPoint x="810" y="-565" />
            </Array>
          </mxGeometry>
        </mxCell>
        <mxCell id="_hNQ7ZMHxFC8y0_ebgMu-25" value="&lt;font style=&quot;font-size: 10px;&quot;&gt;сделать письмо&lt;br&gt;важным&lt;/font&gt;&lt;span style=&quot;font-size: 10px;&quot;&gt;&lt;br&gt;&lt;/span&gt;" style="rounded=1;whiteSpace=wrap;html=1;" parent="1" vertex="1">
          <mxGeometry x="620" y="-585" width="100" height="40" as="geometry" />
        </mxCell>
        <mxCell id="_hNQ7ZMHxFC8y0_ebgMu-33" value="" style="edgeStyle=orthogonalEdgeStyle;rounded=0;orthogonalLoop=1;jettySize=auto;html=1;" parent="1" source="_hNQ7ZMHxFC8y0_ebgMu-28" target="_hNQ7ZMHxFC8y0_ebgMu-32" edge="1">
          <mxGeometry relative="1" as="geometry" />
        </mxCell>
        <mxCell id="_hNQ7ZMHxFC8y0_ebgMu-36" value="Да" style="edgeLabel;html=1;align=center;verticalAlign=middle;resizable=0;points=[];" parent="_hNQ7ZMHxFC8y0_ebgMu-33" vertex="1" connectable="0">
          <mxGeometry x="0.0353" y="1" relative="1" as="geometry">
            <mxPoint as="offset" />
          </mxGeometry>
        </mxCell>
        <mxCell id="_hNQ7ZMHxFC8y0_ebgMu-34" style="edgeStyle=orthogonalEdgeStyle;rounded=0;orthogonalLoop=1;jettySize=auto;html=1;entryX=0;entryY=0.5;entryDx=0;entryDy=0;" parent="1" source="_hNQ7ZMHxFC8y0_ebgMu-28" edge="1">
          <mxGeometry relative="1" as="geometry">
            <Array as="points">
              <mxPoint x="810" y="-420" />
            </Array>
            <mxPoint x="1030" y="-420" as="targetPoint" />
          </mxGeometry>
        </mxCell>
        <mxCell id="_hNQ7ZMHxFC8y0_ebgMu-37" value="Нет" style="edgeLabel;html=1;align=center;verticalAlign=middle;resizable=0;points=[];" parent="_hNQ7ZMHxFC8y0_ebgMu-34" vertex="1" connectable="0">
          <mxGeometry x="0.2096" y="-1" relative="1" as="geometry">
            <mxPoint as="offset" />
          </mxGeometry>
        </mxCell>
        <mxCell id="_hNQ7ZMHxFC8y0_ebgMu-28" value="на контроле?" style="rhombus;whiteSpace=wrap;html=1;fillColor=#FFFFFF;" parent="1" vertex="1">
          <mxGeometry x="750" y="-525" width="120" height="70" as="geometry" />
        </mxCell>
        <mxCell id="l2N0_MCB98eP9rFO-y8g-5" style="edgeStyle=orthogonalEdgeStyle;rounded=0;orthogonalLoop=1;jettySize=auto;html=1;entryX=0.5;entryY=0;entryDx=0;entryDy=0;" parent="1" source="_hNQ7ZMHxFC8y0_ebgMu-32" edge="1">
          <mxGeometry relative="1" as="geometry">
            <mxPoint x="1045" y="-435" as="targetPoint" />
          </mxGeometry>
        </mxCell>
        <mxCell id="_hNQ7ZMHxFC8y0_ebgMu-32" value="&lt;font style=&quot;font-size: 10px;&quot;&gt;сделать письмо&lt;br&gt;на контроле&lt;/font&gt;&lt;span style=&quot;font-size: 10px;&quot;&gt;&lt;br&gt;&lt;/span&gt;" style="rounded=1;whiteSpace=wrap;html=1;" parent="1" vertex="1">
          <mxGeometry x="910" y="-510" width="100" height="40" as="geometry" />
        </mxCell>
        <mxCell id="_hNQ7ZMHxFC8y0_ebgMu-39" style="edgeStyle=orthogonalEdgeStyle;rounded=0;orthogonalLoop=1;jettySize=auto;html=1;entryX=0;entryY=0.5;entryDx=0;entryDy=0;" parent="1" source="_hNQ7ZMHxFC8y0_ebgMu-41" target="_hNQ7ZMHxFC8y0_ebgMu-48" edge="1">
          <mxGeometry relative="1" as="geometry">
            <Array as="points">
              <mxPoint x="520" y="-330" />
            </Array>
          </mxGeometry>
        </mxCell>
        <mxCell id="_hNQ7ZMHxFC8y0_ebgMu-40" value="Нет" style="edgeLabel;html=1;align=center;verticalAlign=middle;resizable=0;points=[];" parent="_hNQ7ZMHxFC8y0_ebgMu-39" vertex="1" connectable="0">
          <mxGeometry x="0.3779" y="-2" relative="1" as="geometry">
            <mxPoint as="offset" />
          </mxGeometry>
        </mxCell>
        <mxCell id="_hNQ7ZMHxFC8y0_ebgMu-52" style="edgeStyle=orthogonalEdgeStyle;rounded=0;orthogonalLoop=1;jettySize=auto;html=1;entryX=0;entryY=0.5;entryDx=0;entryDy=0;" parent="1" source="_hNQ7ZMHxFC8y0_ebgMu-41" target="_hNQ7ZMHxFC8y0_ebgMu-45" edge="1">
          <mxGeometry relative="1" as="geometry" />
        </mxCell>
        <mxCell id="_hNQ7ZMHxFC8y0_ebgMu-54" value="Да" style="edgeLabel;html=1;align=center;verticalAlign=middle;resizable=0;points=[];" parent="_hNQ7ZMHxFC8y0_ebgMu-52" vertex="1" connectable="0">
          <mxGeometry x="0.1417" y="2" relative="1" as="geometry">
            <mxPoint as="offset" />
          </mxGeometry>
        </mxCell>
        <mxCell id="_hNQ7ZMHxFC8y0_ebgMu-41" value="назначен ответственным лицом?" style="rhombus;whiteSpace=wrap;html=1;fillColor=#FFFFFF;" parent="1" vertex="1">
          <mxGeometry x="460" y="-440" width="120" height="70" as="geometry" />
        </mxCell>
        <mxCell id="_hNQ7ZMHxFC8y0_ebgMu-58" style="edgeStyle=orthogonalEdgeStyle;rounded=0;orthogonalLoop=1;jettySize=auto;html=1;entryX=0;entryY=0.5;entryDx=0;entryDy=0;" parent="1" source="_hNQ7ZMHxFC8y0_ebgMu-42" edge="1">
          <mxGeometry relative="1" as="geometry">
            <mxPoint x="1220.9999999999495" y="-260" as="targetPoint" />
          </mxGeometry>
        </mxCell>
        <mxCell id="_hNQ7ZMHxFC8y0_ebgMu-42" value="&lt;font style=&quot;font-size: 10px;&quot;&gt;подтвердить&lt;br&gt;создание&lt;br&gt;приказа&lt;/font&gt;" style="rounded=1;whiteSpace=wrap;html=1;" parent="1" vertex="1">
          <mxGeometry x="1081" y="-280" width="100" height="40" as="geometry" />
        </mxCell>
        <mxCell id="_hNQ7ZMHxFC8y0_ebgMu-44" style="edgeStyle=orthogonalEdgeStyle;rounded=0;orthogonalLoop=1;jettySize=auto;html=1;entryX=0.5;entryY=0;entryDx=0;entryDy=0;" parent="1" source="_hNQ7ZMHxFC8y0_ebgMu-45" target="_hNQ7ZMHxFC8y0_ebgMu-48" edge="1">
          <mxGeometry relative="1" as="geometry">
            <Array as="points">
              <mxPoint x="810" y="-405" />
            </Array>
          </mxGeometry>
        </mxCell>
        <mxCell id="_hNQ7ZMHxFC8y0_ebgMu-45" value="&lt;span style=&quot;font-size: 10px;&quot;&gt;назначить приказ ответственным лицом&lt;br&gt;&lt;/span&gt;" style="rounded=1;whiteSpace=wrap;html=1;" parent="1" vertex="1">
          <mxGeometry x="620" y="-425" width="100" height="40" as="geometry" />
        </mxCell>
        <mxCell id="_hNQ7ZMHxFC8y0_ebgMu-46" style="edgeStyle=orthogonalEdgeStyle;rounded=0;orthogonalLoop=1;jettySize=auto;html=1;entryX=0;entryY=0.5;entryDx=0;entryDy=0;" parent="1" source="_hNQ7ZMHxFC8y0_ebgMu-48" edge="1">
          <mxGeometry relative="1" as="geometry">
            <Array as="points">
              <mxPoint x="810" y="-260" />
            </Array>
            <mxPoint x="1030" y="-260" as="targetPoint" />
          </mxGeometry>
        </mxCell>
        <mxCell id="_hNQ7ZMHxFC8y0_ebgMu-47" value="Нет" style="edgeLabel;html=1;align=center;verticalAlign=middle;resizable=0;points=[];" parent="_hNQ7ZMHxFC8y0_ebgMu-46" vertex="1" connectable="0">
          <mxGeometry x="0.2096" y="-1" relative="1" as="geometry">
            <mxPoint as="offset" />
          </mxGeometry>
        </mxCell>
        <mxCell id="_hNQ7ZMHxFC8y0_ebgMu-55" style="edgeStyle=orthogonalEdgeStyle;rounded=0;orthogonalLoop=1;jettySize=auto;html=1;entryX=0;entryY=0.5;entryDx=0;entryDy=0;" parent="1" source="_hNQ7ZMHxFC8y0_ebgMu-48" target="_hNQ7ZMHxFC8y0_ebgMu-49" edge="1">
          <mxGeometry relative="1" as="geometry" />
        </mxCell>
        <mxCell id="_hNQ7ZMHxFC8y0_ebgMu-56" value="Да" style="edgeLabel;html=1;align=center;verticalAlign=middle;resizable=0;points=[];" parent="_hNQ7ZMHxFC8y0_ebgMu-55" vertex="1" connectable="0">
          <mxGeometry x="0.1417" relative="1" as="geometry">
            <mxPoint as="offset" />
          </mxGeometry>
        </mxCell>
        <mxCell id="_hNQ7ZMHxFC8y0_ebgMu-48" value="на контроле выполнения?" style="rhombus;whiteSpace=wrap;html=1;fillColor=#FFFFFF;" parent="1" vertex="1">
          <mxGeometry x="750" y="-365" width="120" height="70" as="geometry" />
        </mxCell>
        <mxCell id="l2N0_MCB98eP9rFO-y8g-11" style="edgeStyle=orthogonalEdgeStyle;rounded=0;orthogonalLoop=1;jettySize=auto;html=1;entryX=0.5;entryY=0;entryDx=0;entryDy=0;" parent="1" source="_hNQ7ZMHxFC8y0_ebgMu-49" edge="1">
          <mxGeometry relative="1" as="geometry">
            <mxPoint x="1045" y="-275" as="targetPoint" />
          </mxGeometry>
        </mxCell>
        <mxCell id="_hNQ7ZMHxFC8y0_ebgMu-49" value="&lt;font style=&quot;font-size: 10px;&quot;&gt;сделать приказ&lt;br&gt;на контроле выполнения&lt;/font&gt;&lt;span style=&quot;font-size: 10px;&quot;&gt;&lt;br&gt;&lt;/span&gt;" style="rounded=1;whiteSpace=wrap;html=1;" parent="1" vertex="1">
          <mxGeometry x="910" y="-350" width="100" height="40" as="geometry" />
        </mxCell>
        <mxCell id="_hNQ7ZMHxFC8y0_ebgMu-70" style="edgeStyle=orthogonalEdgeStyle;rounded=0;orthogonalLoop=1;jettySize=auto;html=1;entryX=0;entryY=0.5;entryDx=0;entryDy=0;" parent="1" source="_hNQ7ZMHxFC8y0_ebgMu-72" edge="1">
          <mxGeometry relative="1" as="geometry">
            <Array as="points">
              <mxPoint x="520" y="-150" />
            </Array>
            <mxPoint x="740" y="-150" as="targetPoint" />
          </mxGeometry>
        </mxCell>
        <mxCell id="_hNQ7ZMHxFC8y0_ebgMu-71" value="Нет" style="edgeLabel;html=1;align=center;verticalAlign=middle;resizable=0;points=[];" parent="_hNQ7ZMHxFC8y0_ebgMu-70" vertex="1" connectable="0">
          <mxGeometry x="0.3779" y="-2" relative="1" as="geometry">
            <mxPoint as="offset" />
          </mxGeometry>
        </mxCell>
        <mxCell id="_hNQ7ZMHxFC8y0_ebgMu-87" style="edgeStyle=orthogonalEdgeStyle;rounded=0;orthogonalLoop=1;jettySize=auto;html=1;entryX=0;entryY=0.5;entryDx=0;entryDy=0;" parent="1" source="_hNQ7ZMHxFC8y0_ebgMu-72" target="_hNQ7ZMHxFC8y0_ebgMu-74" edge="1">
          <mxGeometry relative="1" as="geometry" />
        </mxCell>
        <mxCell id="_hNQ7ZMHxFC8y0_ebgMu-88" value="Да" style="edgeLabel;html=1;align=center;verticalAlign=middle;resizable=0;points=[];" parent="_hNQ7ZMHxFC8y0_ebgMu-87" vertex="1" connectable="0">
          <mxGeometry x="0.2875" y="-4" relative="1" as="geometry">
            <mxPoint x="-1" as="offset" />
          </mxGeometry>
        </mxCell>
        <mxCell id="_hNQ7ZMHxFC8y0_ebgMu-72" value="указать&lt;br&gt;в постановление&lt;br&gt;список&lt;br&gt;рассылок?" style="rhombus;whiteSpace=wrap;html=1;fillColor=#FFFFFF;" parent="1" vertex="1">
          <mxGeometry x="460" y="-260" width="120" height="70" as="geometry" />
        </mxCell>
        <mxCell id="_hNQ7ZMHxFC8y0_ebgMu-96" value="" style="edgeStyle=orthogonalEdgeStyle;rounded=0;orthogonalLoop=1;jettySize=auto;html=1;entryX=0;entryY=0.5;entryDx=0;entryDy=0;" parent="1" source="_hNQ7ZMHxFC8y0_ebgMu-73" target="OtzGqNVEb2xT5p3p8gZl-13" edge="1">
          <mxGeometry relative="1" as="geometry">
            <mxPoint x="937" y="-150" as="targetPoint" />
          </mxGeometry>
        </mxCell>
        <mxCell id="_hNQ7ZMHxFC8y0_ebgMu-73" value="&lt;font style=&quot;font-size: 10px;&quot;&gt;подтвердить&lt;br&gt;создание&lt;br&gt;постановления&lt;br&gt;&lt;/font&gt;" style="rounded=1;whiteSpace=wrap;html=1;" parent="1" vertex="1">
          <mxGeometry x="797" y="-170" width="100" height="40" as="geometry" />
        </mxCell>
        <mxCell id="l2N0_MCB98eP9rFO-y8g-14" style="edgeStyle=orthogonalEdgeStyle;rounded=0;orthogonalLoop=1;jettySize=auto;html=1;entryX=0.5;entryY=0;entryDx=0;entryDy=0;" parent="1" source="_hNQ7ZMHxFC8y0_ebgMu-74" target="OtzGqNVEb2xT5p3p8gZl-4" edge="1">
          <mxGeometry relative="1" as="geometry">
            <mxPoint x="755" y="-165" as="targetPoint" />
          </mxGeometry>
        </mxCell>
        <mxCell id="_hNQ7ZMHxFC8y0_ebgMu-74" value="&lt;span style=&quot;font-size: 10px;&quot;&gt;назначить приказ ответственным лицом&lt;br&gt;&lt;/span&gt;" style="rounded=1;whiteSpace=wrap;html=1;" parent="1" vertex="1">
          <mxGeometry x="620" y="-245" width="100" height="40" as="geometry" />
        </mxCell>
        <mxCell id="_hNQ7ZMHxFC8y0_ebgMu-113" style="edgeStyle=orthogonalEdgeStyle;rounded=0;orthogonalLoop=1;jettySize=auto;html=1;entryX=0;entryY=0.5;entryDx=0;entryDy=0;" parent="1" source="_hNQ7ZMHxFC8y0_ebgMu-100" target="_hNQ7ZMHxFC8y0_ebgMu-105" edge="1">
          <mxGeometry relative="1" as="geometry" />
        </mxCell>
        <mxCell id="_hNQ7ZMHxFC8y0_ebgMu-114" value="Да" style="edgeLabel;html=1;align=center;verticalAlign=middle;resizable=0;points=[];" parent="_hNQ7ZMHxFC8y0_ebgMu-113" vertex="1" connectable="0">
          <mxGeometry x="0.1417" y="2" relative="1" as="geometry">
            <mxPoint as="offset" />
          </mxGeometry>
        </mxCell>
        <mxCell id="_hNQ7ZMHxFC8y0_ebgMu-115" value="" style="edgeStyle=orthogonalEdgeStyle;rounded=0;orthogonalLoop=1;jettySize=auto;html=1;entryX=0;entryY=0.25;entryDx=0;entryDy=0;" parent="1" source="_hNQ7ZMHxFC8y0_ebgMu-100" target="_hNQ7ZMHxFC8y0_ebgMu-112" edge="1">
          <mxGeometry relative="1" as="geometry">
            <mxPoint x="520" y="20" as="targetPoint" />
            <Array as="points">
              <mxPoint x="520" y="45" />
            </Array>
          </mxGeometry>
        </mxCell>
        <mxCell id="_hNQ7ZMHxFC8y0_ebgMu-116" value="Нет" style="edgeLabel;html=1;align=center;verticalAlign=middle;resizable=0;points=[];" parent="_hNQ7ZMHxFC8y0_ebgMu-115" vertex="1" connectable="0">
          <mxGeometry x="-0.0958" y="-3" relative="1" as="geometry">
            <mxPoint x="10" y="-8" as="offset" />
          </mxGeometry>
        </mxCell>
        <mxCell id="_hNQ7ZMHxFC8y0_ebgMu-100" value="причина&lt;br&gt;от физического&lt;br&gt;лица" style="rhombus;whiteSpace=wrap;html=1;fillColor=#FFFFFF;" parent="1" vertex="1">
          <mxGeometry x="460" y="-90" width="120" height="70" as="geometry" />
        </mxCell>
        <mxCell id="_hNQ7ZMHxFC8y0_ebgMu-101" style="edgeStyle=orthogonalEdgeStyle;rounded=0;orthogonalLoop=1;jettySize=auto;html=1;entryX=0;entryY=0.5;entryDx=0;entryDy=0;" parent="1" source="_hNQ7ZMHxFC8y0_ebgMu-102" edge="1">
          <mxGeometry relative="1" as="geometry">
            <mxPoint x="1117" y="-5" as="targetPoint" />
          </mxGeometry>
        </mxCell>
        <mxCell id="_hNQ7ZMHxFC8y0_ebgMu-102" value="&lt;font style=&quot;font-size: 10px;&quot;&gt;подтвердить&lt;br&gt;создание&lt;br&gt;жалобы&lt;/font&gt;" style="rounded=1;whiteSpace=wrap;html=1;" parent="1" vertex="1">
          <mxGeometry x="977" y="-25" width="100" height="40" as="geometry" />
        </mxCell>
        <mxCell id="l2N0_MCB98eP9rFO-y8g-18" style="edgeStyle=orthogonalEdgeStyle;rounded=0;orthogonalLoop=1;jettySize=auto;html=1;entryX=0.5;entryY=0;entryDx=0;entryDy=0;" parent="1" source="_hNQ7ZMHxFC8y0_ebgMu-105" target="OtzGqNVEb2xT5p3p8gZl-5" edge="1">
          <mxGeometry relative="1" as="geometry">
            <mxPoint x="775" y="-20" as="targetPoint" />
          </mxGeometry>
        </mxCell>
        <mxCell id="_hNQ7ZMHxFC8y0_ebgMu-105" value="&lt;span style=&quot;font-size: 10px;&quot;&gt;ввести данные физического лица&lt;br&gt;&lt;/span&gt;" style="rounded=1;whiteSpace=wrap;html=1;" parent="1" vertex="1">
          <mxGeometry x="620" y="-75" width="100" height="40" as="geometry" />
        </mxCell>
        <mxCell id="_hNQ7ZMHxFC8y0_ebgMu-121" value="" style="edgeStyle=orthogonalEdgeStyle;rounded=0;orthogonalLoop=1;jettySize=auto;html=1;" parent="1" source="_hNQ7ZMHxFC8y0_ebgMu-111" target="_hNQ7ZMHxFC8y0_ebgMu-102" edge="1">
          <mxGeometry relative="1" as="geometry" />
        </mxCell>
        <mxCell id="_hNQ7ZMHxFC8y0_ebgMu-111" value="&lt;span style=&quot;font-size: 10px;&quot;&gt;ввести срок ответа&lt;br&gt;&lt;/span&gt;" style="rounded=1;whiteSpace=wrap;html=1;" parent="1" vertex="1">
          <mxGeometry x="827" y="-25" width="100" height="40" as="geometry" />
        </mxCell>
        <mxCell id="l2N0_MCB98eP9rFO-y8g-19" style="edgeStyle=orthogonalEdgeStyle;rounded=0;orthogonalLoop=1;jettySize=auto;html=1;entryX=0.5;entryY=1;entryDx=0;entryDy=0;" parent="1" source="_hNQ7ZMHxFC8y0_ebgMu-112" target="OtzGqNVEb2xT5p3p8gZl-5" edge="1">
          <mxGeometry relative="1" as="geometry">
            <mxPoint x="775" y="10" as="targetPoint" />
          </mxGeometry>
        </mxCell>
        <mxCell id="_hNQ7ZMHxFC8y0_ebgMu-112" value="&lt;span style=&quot;font-size: 10px;&quot;&gt;ввести данные юридического лица&lt;br&gt;&lt;/span&gt;" style="rounded=1;whiteSpace=wrap;html=1;" parent="1" vertex="1">
          <mxGeometry x="620" y="35" width="100" height="40" as="geometry" />
        </mxCell>
        <mxCell id="l2N0_MCB98eP9rFO-y8g-6" style="edgeStyle=orthogonalEdgeStyle;rounded=0;orthogonalLoop=1;jettySize=auto;html=1;entryX=0;entryY=0.5;entryDx=0;entryDy=0;" parent="1" target="_hNQ7ZMHxFC8y0_ebgMu-15" edge="1">
          <mxGeometry relative="1" as="geometry">
            <mxPoint x="1060" y="-420" as="sourcePoint" />
          </mxGeometry>
        </mxCell>
        <mxCell id="l2N0_MCB98eP9rFO-y8g-12" value="" style="edgeStyle=orthogonalEdgeStyle;rounded=0;orthogonalLoop=1;jettySize=auto;html=1;" parent="1" target="_hNQ7ZMHxFC8y0_ebgMu-42" edge="1">
          <mxGeometry relative="1" as="geometry">
            <mxPoint x="1060" y="-260" as="sourcePoint" />
          </mxGeometry>
        </mxCell>
        <mxCell id="l2N0_MCB98eP9rFO-y8g-15" value="" style="edgeStyle=orthogonalEdgeStyle;rounded=0;orthogonalLoop=1;jettySize=auto;html=1;" parent="1" target="_hNQ7ZMHxFC8y0_ebgMu-73" edge="1">
          <mxGeometry relative="1" as="geometry">
            <mxPoint x="770" y="-150" as="sourcePoint" />
          </mxGeometry>
        </mxCell>
        <mxCell id="l2N0_MCB98eP9rFO-y8g-20" value="" style="edgeStyle=orthogonalEdgeStyle;rounded=0;orthogonalLoop=1;jettySize=auto;html=1;" parent="1" target="_hNQ7ZMHxFC8y0_ebgMu-111" edge="1">
          <mxGeometry relative="1" as="geometry">
            <mxPoint x="790" y="-5" as="sourcePoint" />
          </mxGeometry>
        </mxCell>
        <mxCell id="OtzGqNVEb2xT5p3p8gZl-1" value="" style="rhombus;whiteSpace=wrap;html=1;" parent="1" vertex="1">
          <mxGeometry x="1026.5" y="-435" width="37" height="30" as="geometry" />
        </mxCell>
        <mxCell id="OtzGqNVEb2xT5p3p8gZl-3" value="" style="rhombus;whiteSpace=wrap;html=1;" parent="1" vertex="1">
          <mxGeometry x="1026.5" y="-275" width="37" height="30" as="geometry" />
        </mxCell>
        <mxCell id="OtzGqNVEb2xT5p3p8gZl-4" value="" style="rhombus;whiteSpace=wrap;html=1;" parent="1" vertex="1">
          <mxGeometry x="740" y="-165" width="37" height="30" as="geometry" />
        </mxCell>
        <mxCell id="OtzGqNVEb2xT5p3p8gZl-5" value="" style="rhombus;whiteSpace=wrap;html=1;" parent="1" vertex="1">
          <mxGeometry x="760" y="-20" width="37" height="30" as="geometry" />
        </mxCell>
        <mxCell id="OtzGqNVEb2xT5p3p8gZl-6" value="" style="ellipse;whiteSpace=wrap;html=1;aspect=fixed;" parent="1" vertex="1">
          <mxGeometry x="1116" y="-20" width="30" height="30" as="geometry" />
        </mxCell>
        <mxCell id="OtzGqNVEb2xT5p3p8gZl-7" value="" style="ellipse;whiteSpace=wrap;html=1;aspect=fixed;" parent="1" vertex="1">
          <mxGeometry x="1121" y="-15" width="20" height="20" as="geometry" />
        </mxCell>
        <mxCell id="OtzGqNVEb2xT5p3p8gZl-9" value="" style="ellipse;whiteSpace=wrap;html=1;aspect=fixed;" parent="1" vertex="1">
          <mxGeometry x="1220" y="-275" width="30" height="30" as="geometry" />
        </mxCell>
        <mxCell id="OtzGqNVEb2xT5p3p8gZl-10" value="" style="ellipse;whiteSpace=wrap;html=1;aspect=fixed;" parent="1" vertex="1">
          <mxGeometry x="1225" y="-270" width="20" height="20" as="geometry" />
        </mxCell>
        <mxCell id="OtzGqNVEb2xT5p3p8gZl-11" value="" style="ellipse;whiteSpace=wrap;html=1;aspect=fixed;" parent="1" vertex="1">
          <mxGeometry x="1220" y="-435" width="30" height="30" as="geometry" />
        </mxCell>
        <mxCell id="OtzGqNVEb2xT5p3p8gZl-12" value="" style="ellipse;whiteSpace=wrap;html=1;aspect=fixed;" parent="1" vertex="1">
          <mxGeometry x="1225" y="-430" width="20" height="20" as="geometry" />
        </mxCell>
        <mxCell id="OtzGqNVEb2xT5p3p8gZl-13" value="" style="ellipse;whiteSpace=wrap;html=1;aspect=fixed;" parent="1" vertex="1">
          <mxGeometry x="940" y="-165" width="30" height="30" as="geometry" />
        </mxCell>
        <mxCell id="OtzGqNVEb2xT5p3p8gZl-14" value="" style="ellipse;whiteSpace=wrap;html=1;aspect=fixed;" parent="1" vertex="1">
          <mxGeometry x="945" y="-160" width="20" height="20" as="geometry" />
        </mxCell>
      </root>
    </mxGraphModel>
  </diagram>
  <diagram id="hKTRN4Eu5D3dBun8HlOk" name="Страница — 2">
    <mxGraphModel dx="2591" dy="1031" grid="1" gridSize="10" guides="1" tooltips="1" connect="1" arrows="1" fold="1" page="1" pageScale="1" pageWidth="827" pageHeight="1169" math="0" shadow="0">
      <root>
        <mxCell id="0" />
        <mxCell id="1" parent="0" />
        <mxCell id="ijHg-M6VovlhX_DKMfo1-1" value="" style="rounded=0;whiteSpace=wrap;html=1;" vertex="1" parent="1">
          <mxGeometry x="-10" width="930" height="950" as="geometry" />
        </mxCell>
        <mxCell id="Z0ue60KEQzysiuTv03bT-1" value="Пользователь" style="shape=umlActor;verticalLabelPosition=bottom;verticalAlign=top;html=1;outlineConnect=0;" parent="1" vertex="1">
          <mxGeometry x="140" y="40" width="30" height="60" as="geometry" />
        </mxCell>
        <mxCell id="Z0ue60KEQzysiuTv03bT-2" value="Приложение" style="rounded=0;whiteSpace=wrap;html=1;" parent="1" vertex="1">
          <mxGeometry x="290" y="40" width="120" height="60" as="geometry" />
        </mxCell>
        <mxCell id="Z0ue60KEQzysiuTv03bT-3" value="Журнал" style="rounded=0;whiteSpace=wrap;html=1;" parent="1" vertex="1">
          <mxGeometry x="500" y="40" width="120" height="60" as="geometry" />
        </mxCell>
        <mxCell id="Z0ue60KEQzysiuTv03bT-4" value="Корреспонденция" style="rounded=0;whiteSpace=wrap;html=1;" parent="1" vertex="1">
          <mxGeometry x="707" y="40" width="120" height="60" as="geometry" />
        </mxCell>
        <mxCell id="Z0ue60KEQzysiuTv03bT-5" value="" style="rounded=0;whiteSpace=wrap;html=1;" parent="1" vertex="1">
          <mxGeometry x="150" y="130" width="10" height="770" as="geometry" />
        </mxCell>
        <mxCell id="Z0ue60KEQzysiuTv03bT-6" value="" style="endArrow=none;dashed=1;html=1;dashPattern=1 3;strokeWidth=2;rounded=0;" parent="1" edge="1">
          <mxGeometry width="50" height="50" relative="1" as="geometry">
            <mxPoint x="350" y="180" as="sourcePoint" />
            <mxPoint x="350" y="120" as="targetPoint" />
          </mxGeometry>
        </mxCell>
        <mxCell id="Z0ue60KEQzysiuTv03bT-8" value="" style="endArrow=none;dashed=1;html=1;dashPattern=1 3;strokeWidth=2;rounded=0;" parent="1" edge="1">
          <mxGeometry width="50" height="50" relative="1" as="geometry">
            <mxPoint x="350" y="380" as="sourcePoint" />
            <mxPoint x="350" y="340" as="targetPoint" />
          </mxGeometry>
        </mxCell>
        <mxCell id="Z0ue60KEQzysiuTv03bT-10" value="" style="endArrow=none;dashed=1;html=1;dashPattern=1 3;strokeWidth=2;rounded=0;" parent="1" source="b9I3FtaCnOZ5W_pDFeEo-1" edge="1">
          <mxGeometry width="50" height="50" relative="1" as="geometry">
            <mxPoint x="350" y="880" as="sourcePoint" />
            <mxPoint x="350" y="540" as="targetPoint" />
          </mxGeometry>
        </mxCell>
        <mxCell id="Z0ue60KEQzysiuTv03bT-12" value="" style="endArrow=none;dashed=1;html=1;dashPattern=1 3;strokeWidth=2;rounded=0;" parent="1" source="Z0ue60KEQzysiuTv03bT-13" edge="1">
          <mxGeometry width="50" height="50" relative="1" as="geometry">
            <mxPoint x="559" y="880" as="sourcePoint" />
            <mxPoint x="559.29" y="120" as="targetPoint" />
          </mxGeometry>
        </mxCell>
        <mxCell id="Z0ue60KEQzysiuTv03bT-14" value="" style="endArrow=none;dashed=1;html=1;dashPattern=1 3;strokeWidth=2;rounded=0;" parent="1" source="Z0ue60KEQzysiuTv03bT-15" target="Z0ue60KEQzysiuTv03bT-13" edge="1">
          <mxGeometry width="50" height="50" relative="1" as="geometry">
            <mxPoint x="559" y="880" as="sourcePoint" />
            <mxPoint x="559.29" y="120" as="targetPoint" />
          </mxGeometry>
        </mxCell>
        <mxCell id="Z0ue60KEQzysiuTv03bT-13" value="" style="rounded=0;whiteSpace=wrap;html=1;" parent="1" vertex="1">
          <mxGeometry x="555" y="180" width="10" height="140" as="geometry" />
        </mxCell>
        <mxCell id="Z0ue60KEQzysiuTv03bT-16" value="" style="endArrow=none;dashed=1;html=1;dashPattern=1 3;strokeWidth=2;rounded=0;" parent="1" source="Z0ue60KEQzysiuTv03bT-17" target="Z0ue60KEQzysiuTv03bT-15" edge="1">
          <mxGeometry width="50" height="50" relative="1" as="geometry">
            <mxPoint x="559" y="880" as="sourcePoint" />
            <mxPoint x="560" y="320" as="targetPoint" />
          </mxGeometry>
        </mxCell>
        <mxCell id="Z0ue60KEQzysiuTv03bT-15" value="" style="rounded=0;whiteSpace=wrap;html=1;" parent="1" vertex="1">
          <mxGeometry x="555" y="380" width="10" height="140" as="geometry" />
        </mxCell>
        <mxCell id="Z0ue60KEQzysiuTv03bT-18" value="" style="endArrow=none;dashed=1;html=1;dashPattern=1 3;strokeWidth=2;rounded=0;" parent="1" target="Z0ue60KEQzysiuTv03bT-17" edge="1">
          <mxGeometry width="50" height="50" relative="1" as="geometry">
            <mxPoint x="559" y="880" as="sourcePoint" />
            <mxPoint x="560" y="520" as="targetPoint" />
          </mxGeometry>
        </mxCell>
        <mxCell id="Z0ue60KEQzysiuTv03bT-17" value="" style="rounded=0;whiteSpace=wrap;html=1;" parent="1" vertex="1">
          <mxGeometry x="555" y="584.5" width="10" height="140" as="geometry" />
        </mxCell>
        <mxCell id="Z0ue60KEQzysiuTv03bT-19" value="" style="endArrow=none;dashed=1;html=1;dashPattern=1 3;strokeWidth=2;rounded=0;" parent="1" source="Z0ue60KEQzysiuTv03bT-20" edge="1">
          <mxGeometry width="50" height="50" relative="1" as="geometry">
            <mxPoint x="766" y="883.809552873884" as="sourcePoint" />
            <mxPoint x="766.29" y="120" as="targetPoint" />
          </mxGeometry>
        </mxCell>
        <mxCell id="Z0ue60KEQzysiuTv03bT-21" value="" style="endArrow=none;dashed=1;html=1;dashPattern=1 3;strokeWidth=2;rounded=0;" parent="1" target="Z0ue60KEQzysiuTv03bT-20" edge="1">
          <mxGeometry width="50" height="50" relative="1" as="geometry">
            <mxPoint x="765" y="880" as="sourcePoint" />
            <mxPoint x="766.29" y="120" as="targetPoint" />
          </mxGeometry>
        </mxCell>
        <mxCell id="Z0ue60KEQzysiuTv03bT-20" value="" style="rounded=0;whiteSpace=wrap;html=1;" parent="1" vertex="1">
          <mxGeometry x="760" y="195" width="10" height="110" as="geometry" />
        </mxCell>
        <mxCell id="Z0ue60KEQzysiuTv03bT-22" value="" style="rounded=0;whiteSpace=wrap;html=1;" parent="1" vertex="1">
          <mxGeometry x="762" y="395" width="10" height="110" as="geometry" />
        </mxCell>
        <mxCell id="Z0ue60KEQzysiuTv03bT-31" value="" style="endArrow=classic;html=1;rounded=0;exitX=1.029;exitY=0.098;exitDx=0;exitDy=0;exitPerimeter=0;entryX=-0.334;entryY=0.151;entryDx=0;entryDy=0;entryPerimeter=0;" parent="1" source="Z0ue60KEQzysiuTv03bT-5" edge="1">
          <mxGeometry width="50" height="50" relative="1" as="geometry">
            <mxPoint x="180" y="210" as="sourcePoint" />
            <mxPoint x="341.65999999999985" y="204.16000000000008" as="targetPoint" />
          </mxGeometry>
        </mxCell>
        <mxCell id="Z0ue60KEQzysiuTv03bT-32" value="создание корреспонденции()" style="edgeLabel;html=1;align=center;verticalAlign=middle;resizable=0;points=[];" parent="Z0ue60KEQzysiuTv03bT-31" vertex="1" connectable="0">
          <mxGeometry x="0.3651" y="-1" relative="1" as="geometry">
            <mxPoint x="-25" y="-11" as="offset" />
          </mxGeometry>
        </mxCell>
        <mxCell id="Z0ue60KEQzysiuTv03bT-33" value="" style="endArrow=classic;html=1;rounded=0;exitX=1.029;exitY=0.098;exitDx=0;exitDy=0;exitPerimeter=0;entryX=-0.157;entryY=0.211;entryDx=0;entryDy=0;entryPerimeter=0;" parent="1" target="Z0ue60KEQzysiuTv03bT-13" edge="1">
          <mxGeometry width="50" height="50" relative="1" as="geometry">
            <mxPoint x="355" y="211" as="sourcePoint" />
            <mxPoint x="537" y="210" as="targetPoint" />
          </mxGeometry>
        </mxCell>
        <mxCell id="Z0ue60KEQzysiuTv03bT-34" value="создание корреспонденции()" style="edgeLabel;html=1;align=center;verticalAlign=middle;resizable=0;points=[];" parent="Z0ue60KEQzysiuTv03bT-33" vertex="1" connectable="0">
          <mxGeometry x="0.3651" y="-1" relative="1" as="geometry">
            <mxPoint x="-25" y="-11" as="offset" />
          </mxGeometry>
        </mxCell>
        <mxCell id="Z0ue60KEQzysiuTv03bT-37" value="" style="endArrow=classic;html=1;rounded=0;entryX=0;entryY=0.25;entryDx=0;entryDy=0;" parent="1" target="Z0ue60KEQzysiuTv03bT-20" edge="1">
          <mxGeometry width="50" height="50" relative="1" as="geometry">
            <mxPoint x="560" y="223" as="sourcePoint" />
            <mxPoint x="680" y="200" as="targetPoint" />
          </mxGeometry>
        </mxCell>
        <mxCell id="Z0ue60KEQzysiuTv03bT-38" value="Создание&lt;br&gt;корреспонденции" style="edgeLabel;html=1;align=center;verticalAlign=middle;resizable=0;points=[];" parent="Z0ue60KEQzysiuTv03bT-37" vertex="1" connectable="0">
          <mxGeometry x="0.7311" y="1" relative="1" as="geometry">
            <mxPoint x="-64" y="-30" as="offset" />
          </mxGeometry>
        </mxCell>
        <mxCell id="Z0ue60KEQzysiuTv03bT-47" value="" style="endArrow=classic;html=1;rounded=0;exitX=1.029;exitY=0.098;exitDx=0;exitDy=0;exitPerimeter=0;entryX=-0.334;entryY=0.151;entryDx=0;entryDy=0;entryPerimeter=0;" parent="1" edge="1">
          <mxGeometry width="50" height="50" relative="1" as="geometry">
            <mxPoint x="162" y="398.5" as="sourcePoint" />
            <mxPoint x="344" y="397.5" as="targetPoint" />
          </mxGeometry>
        </mxCell>
        <mxCell id="Z0ue60KEQzysiuTv03bT-48" value="Редактирование корреспонденции()" style="edgeLabel;html=1;align=center;verticalAlign=middle;resizable=0;points=[];" parent="Z0ue60KEQzysiuTv03bT-47" vertex="1" connectable="0">
          <mxGeometry x="0.3651" y="-1" relative="1" as="geometry">
            <mxPoint x="-25" y="-11" as="offset" />
          </mxGeometry>
        </mxCell>
        <mxCell id="Z0ue60KEQzysiuTv03bT-49" value="" style="endArrow=classic;html=1;rounded=0;exitX=1.029;exitY=0.098;exitDx=0;exitDy=0;exitPerimeter=0;entryX=-0.157;entryY=0.211;entryDx=0;entryDy=0;entryPerimeter=0;" parent="1" edge="1">
          <mxGeometry width="50" height="50" relative="1" as="geometry">
            <mxPoint x="357" y="404.5" as="sourcePoint" />
            <mxPoint x="555" y="403.5" as="targetPoint" />
          </mxGeometry>
        </mxCell>
        <mxCell id="Z0ue60KEQzysiuTv03bT-50" value="Редактирование корреспонденции()" style="edgeLabel;html=1;align=center;verticalAlign=middle;resizable=0;points=[];" parent="Z0ue60KEQzysiuTv03bT-49" vertex="1" connectable="0">
          <mxGeometry x="0.3651" y="-1" relative="1" as="geometry">
            <mxPoint x="-25" y="-11" as="offset" />
          </mxGeometry>
        </mxCell>
        <mxCell id="Z0ue60KEQzysiuTv03bT-51" value="" style="endArrow=classic;html=1;rounded=0;exitX=1;exitY=0.25;exitDx=0;exitDy=0;entryX=0;entryY=0.25;entryDx=0;entryDy=0;" parent="1" edge="1">
          <mxGeometry width="50" height="50" relative="1" as="geometry">
            <mxPoint x="567" y="408.5" as="sourcePoint" />
            <mxPoint x="762" y="416.5" as="targetPoint" />
          </mxGeometry>
        </mxCell>
        <mxCell id="Z0ue60KEQzysiuTv03bT-52" value="Редактирование&lt;br&gt;корреспонденции" style="edgeLabel;html=1;align=center;verticalAlign=middle;resizable=0;points=[];" parent="Z0ue60KEQzysiuTv03bT-51" vertex="1" connectable="0">
          <mxGeometry x="0.7311" y="1" relative="1" as="geometry">
            <mxPoint x="-64" y="-30" as="offset" />
          </mxGeometry>
        </mxCell>
        <mxCell id="Z0ue60KEQzysiuTv03bT-61" value="" style="endArrow=classic;html=1;rounded=0;exitX=1.029;exitY=0.098;exitDx=0;exitDy=0;exitPerimeter=0;entryX=-0.334;entryY=0.151;entryDx=0;entryDy=0;entryPerimeter=0;" parent="1" edge="1">
          <mxGeometry width="50" height="50" relative="1" as="geometry">
            <mxPoint x="162" y="621" as="sourcePoint" />
            <mxPoint x="344" y="620" as="targetPoint" />
          </mxGeometry>
        </mxCell>
        <mxCell id="Z0ue60KEQzysiuTv03bT-62" value="Удаление корреспонденции()" style="edgeLabel;html=1;align=center;verticalAlign=middle;resizable=0;points=[];" parent="Z0ue60KEQzysiuTv03bT-61" vertex="1" connectable="0">
          <mxGeometry x="0.3651" y="-1" relative="1" as="geometry">
            <mxPoint x="-25" y="-11" as="offset" />
          </mxGeometry>
        </mxCell>
        <mxCell id="Z0ue60KEQzysiuTv03bT-63" value="" style="endArrow=classic;html=1;rounded=0;exitX=1.029;exitY=0.098;exitDx=0;exitDy=0;exitPerimeter=0;entryX=-0.157;entryY=0.211;entryDx=0;entryDy=0;entryPerimeter=0;" parent="1" edge="1">
          <mxGeometry width="50" height="50" relative="1" as="geometry">
            <mxPoint x="357" y="627" as="sourcePoint" />
            <mxPoint x="555" y="626" as="targetPoint" />
          </mxGeometry>
        </mxCell>
        <mxCell id="Z0ue60KEQzysiuTv03bT-64" value="Удаление корреспонденции()" style="edgeLabel;html=1;align=center;verticalAlign=middle;resizable=0;points=[];" parent="Z0ue60KEQzysiuTv03bT-63" vertex="1" connectable="0">
          <mxGeometry x="0.3651" y="-1" relative="1" as="geometry">
            <mxPoint x="-25" y="-11" as="offset" />
          </mxGeometry>
        </mxCell>
        <mxCell id="b9I3FtaCnOZ5W_pDFeEo-2" value="" style="endArrow=none;dashed=1;html=1;dashPattern=1 3;strokeWidth=2;rounded=0;" parent="1" target="b9I3FtaCnOZ5W_pDFeEo-1" edge="1">
          <mxGeometry width="50" height="50" relative="1" as="geometry">
            <mxPoint x="350" y="880" as="sourcePoint" />
            <mxPoint x="350" y="540" as="targetPoint" />
          </mxGeometry>
        </mxCell>
        <mxCell id="b9I3FtaCnOZ5W_pDFeEo-1" value="" style="rounded=0;whiteSpace=wrap;html=1;" parent="1" vertex="1">
          <mxGeometry x="345" y="130" width="10" height="770" as="geometry" />
        </mxCell>
        <mxCell id="b9I3FtaCnOZ5W_pDFeEo-4" value="" style="endArrow=block;dashed=1;endFill=0;endSize=12;html=1;rounded=0;exitX=0;exitY=0.75;exitDx=0;exitDy=0;entryX=1;entryY=0.75;entryDx=0;entryDy=0;" parent="1" source="Z0ue60KEQzysiuTv03bT-20" target="Z0ue60KEQzysiuTv03bT-13" edge="1">
          <mxGeometry width="160" relative="1" as="geometry">
            <mxPoint x="707" y="300" as="sourcePoint" />
            <mxPoint x="597" y="380" as="targetPoint" />
          </mxGeometry>
        </mxCell>
        <mxCell id="b9I3FtaCnOZ5W_pDFeEo-5" value="корреспонденция создана&lt;br&gt;и добавлена в список&amp;nbsp;" style="edgeLabel;html=1;align=center;verticalAlign=middle;resizable=0;points=[];" parent="b9I3FtaCnOZ5W_pDFeEo-4" vertex="1" connectable="0">
          <mxGeometry x="-0.0213" y="2" relative="1" as="geometry">
            <mxPoint as="offset" />
          </mxGeometry>
        </mxCell>
        <mxCell id="b9I3FtaCnOZ5W_pDFeEo-6" value="" style="endArrow=block;dashed=1;endFill=0;endSize=12;html=1;rounded=0;exitX=-0.5;exitY=0.857;exitDx=0;exitDy=0;exitPerimeter=0;" parent="1" source="Z0ue60KEQzysiuTv03bT-13" edge="1">
          <mxGeometry width="160" relative="1" as="geometry">
            <mxPoint x="360" y="290" as="sourcePoint" />
            <mxPoint x="360" y="300" as="targetPoint" />
          </mxGeometry>
        </mxCell>
        <mxCell id="b9I3FtaCnOZ5W_pDFeEo-7" value="результат о создании&lt;br style=&quot;border-color: var(--border-color);&quot;&gt;корреспонденции" style="edgeLabel;html=1;align=center;verticalAlign=middle;resizable=0;points=[];" parent="b9I3FtaCnOZ5W_pDFeEo-6" vertex="1" connectable="0">
          <mxGeometry x="-0.4418" relative="1" as="geometry">
            <mxPoint x="-28" as="offset" />
          </mxGeometry>
        </mxCell>
        <mxCell id="b9I3FtaCnOZ5W_pDFeEo-8" value="" style="endArrow=block;dashed=1;endFill=0;endSize=12;html=1;rounded=0;exitX=-0.5;exitY=0.857;exitDx=0;exitDy=0;exitPerimeter=0;" parent="1" edge="1">
          <mxGeometry width="160" relative="1" as="geometry">
            <mxPoint x="345" y="305" as="sourcePoint" />
            <mxPoint x="160" y="310" as="targetPoint" />
          </mxGeometry>
        </mxCell>
        <mxCell id="b9I3FtaCnOZ5W_pDFeEo-9" value="результат о создании&lt;br style=&quot;border-color: var(--border-color);&quot;&gt;корреспонденции" style="edgeLabel;html=1;align=center;verticalAlign=middle;resizable=0;points=[];" parent="b9I3FtaCnOZ5W_pDFeEo-8" vertex="1" connectable="0">
          <mxGeometry x="-0.4418" relative="1" as="geometry">
            <mxPoint x="-28" as="offset" />
          </mxGeometry>
        </mxCell>
        <mxCell id="b9I3FtaCnOZ5W_pDFeEo-10" value="" style="endArrow=block;dashed=1;endFill=0;endSize=12;html=1;rounded=0;exitX=0;exitY=0.75;exitDx=0;exitDy=0;entryX=1;entryY=0.75;entryDx=0;entryDy=0;" parent="1" edge="1">
          <mxGeometry width="160" relative="1" as="geometry">
            <mxPoint x="762" y="490" as="sourcePoint" />
            <mxPoint x="567" y="497" as="targetPoint" />
          </mxGeometry>
        </mxCell>
        <mxCell id="b9I3FtaCnOZ5W_pDFeEo-11" value="корреспонденция&lt;br style=&quot;border-color: var(--border-color);&quot;&gt;изменена" style="edgeLabel;html=1;align=center;verticalAlign=middle;resizable=0;points=[];" parent="b9I3FtaCnOZ5W_pDFeEo-10" vertex="1" connectable="0">
          <mxGeometry x="-0.0213" y="2" relative="1" as="geometry">
            <mxPoint as="offset" />
          </mxGeometry>
        </mxCell>
        <mxCell id="b9I3FtaCnOZ5W_pDFeEo-13" value="" style="endArrow=block;dashed=1;endFill=0;endSize=12;html=1;rounded=0;exitX=-0.5;exitY=0.857;exitDx=0;exitDy=0;exitPerimeter=0;" parent="1" edge="1">
          <mxGeometry width="160" relative="1" as="geometry">
            <mxPoint x="555" y="505" as="sourcePoint" />
            <mxPoint x="360" y="505" as="targetPoint" />
          </mxGeometry>
        </mxCell>
        <mxCell id="b9I3FtaCnOZ5W_pDFeEo-14" value="результат о изменении&lt;br style=&quot;border-color: var(--border-color);&quot;&gt;корреспонденции" style="edgeLabel;html=1;align=center;verticalAlign=middle;resizable=0;points=[];" parent="b9I3FtaCnOZ5W_pDFeEo-13" vertex="1" connectable="0">
          <mxGeometry x="-0.4418" relative="1" as="geometry">
            <mxPoint x="-28" as="offset" />
          </mxGeometry>
        </mxCell>
        <mxCell id="b9I3FtaCnOZ5W_pDFeEo-15" value="" style="endArrow=block;dashed=1;endFill=0;endSize=12;html=1;rounded=0;" parent="1" edge="1">
          <mxGeometry width="160" relative="1" as="geometry">
            <mxPoint x="340" y="514" as="sourcePoint" />
            <mxPoint x="160" y="514.23" as="targetPoint" />
          </mxGeometry>
        </mxCell>
        <mxCell id="b9I3FtaCnOZ5W_pDFeEo-16" value="результат о изменении&lt;br style=&quot;border-color: var(--border-color);&quot;&gt;корреспонденции" style="edgeLabel;html=1;align=center;verticalAlign=middle;resizable=0;points=[];" parent="b9I3FtaCnOZ5W_pDFeEo-15" vertex="1" connectable="0">
          <mxGeometry x="-0.4418" relative="1" as="geometry">
            <mxPoint x="-28" as="offset" />
          </mxGeometry>
        </mxCell>
        <mxCell id="b9I3FtaCnOZ5W_pDFeEo-17" value="" style="endArrow=block;dashed=1;endFill=0;endSize=12;html=1;rounded=0;exitX=-0.5;exitY=0.857;exitDx=0;exitDy=0;exitPerimeter=0;" parent="1" edge="1">
          <mxGeometry width="160" relative="1" as="geometry">
            <mxPoint x="555" y="700" as="sourcePoint" />
            <mxPoint x="360" y="700" as="targetPoint" />
          </mxGeometry>
        </mxCell>
        <mxCell id="b9I3FtaCnOZ5W_pDFeEo-18" value="результат о удалении&lt;br style=&quot;border-color: var(--border-color);&quot;&gt;корреспонденции" style="edgeLabel;html=1;align=center;verticalAlign=middle;resizable=0;points=[];" parent="b9I3FtaCnOZ5W_pDFeEo-17" vertex="1" connectable="0">
          <mxGeometry x="-0.4418" relative="1" as="geometry">
            <mxPoint x="-28" as="offset" />
          </mxGeometry>
        </mxCell>
        <mxCell id="b9I3FtaCnOZ5W_pDFeEo-19" value="" style="endArrow=block;dashed=1;endFill=0;endSize=12;html=1;rounded=0;exitX=0;exitY=0.75;exitDx=0;exitDy=0;" parent="1" source="b9I3FtaCnOZ5W_pDFeEo-1" edge="1">
          <mxGeometry width="160" relative="1" as="geometry">
            <mxPoint x="340" y="710" as="sourcePoint" />
            <mxPoint x="160" y="710" as="targetPoint" />
          </mxGeometry>
        </mxCell>
        <mxCell id="b9I3FtaCnOZ5W_pDFeEo-20" value="результат о удалении&lt;br style=&quot;border-color: var(--border-color);&quot;&gt;корреспонденции" style="edgeLabel;html=1;align=center;verticalAlign=middle;resizable=0;points=[];" parent="b9I3FtaCnOZ5W_pDFeEo-19" vertex="1" connectable="0">
          <mxGeometry x="-0.4418" relative="1" as="geometry">
            <mxPoint x="-28" as="offset" />
          </mxGeometry>
        </mxCell>
        <mxCell id="DyUwWcNUOA2CaUP0nMDm-1" value="" style="endArrow=none;html=1;rounded=0;" parent="1" edge="1">
          <mxGeometry width="50" height="50" relative="1" as="geometry">
            <mxPoint x="145" y="910" as="sourcePoint" />
            <mxPoint x="165" y="890" as="targetPoint" />
          </mxGeometry>
        </mxCell>
        <mxCell id="DyUwWcNUOA2CaUP0nMDm-3" value="" style="endArrow=none;html=1;rounded=0;" parent="1" edge="1">
          <mxGeometry width="50" height="50" relative="1" as="geometry">
            <mxPoint x="165" y="910" as="sourcePoint" />
            <mxPoint x="145" y="890" as="targetPoint" />
          </mxGeometry>
        </mxCell>
        <mxCell id="DyUwWcNUOA2CaUP0nMDm-6" value="" style="endArrow=none;html=1;rounded=0;" parent="1" edge="1">
          <mxGeometry width="50" height="50" relative="1" as="geometry">
            <mxPoint x="340" y="910" as="sourcePoint" />
            <mxPoint x="360" y="890" as="targetPoint" />
          </mxGeometry>
        </mxCell>
        <mxCell id="DyUwWcNUOA2CaUP0nMDm-7" value="" style="endArrow=none;html=1;rounded=0;" parent="1" edge="1">
          <mxGeometry width="50" height="50" relative="1" as="geometry">
            <mxPoint x="360" y="910" as="sourcePoint" />
            <mxPoint x="340" y="890" as="targetPoint" />
          </mxGeometry>
        </mxCell>
      </root>
    </mxGraphModel>
  </diagram>
  <diagram id="AgxaowWLDYzOhdU9LDkv" name="Страница — 3">
    <mxGraphModel dx="1444" dy="2013" grid="1" gridSize="10" guides="1" tooltips="1" connect="1" arrows="1" fold="1" page="1" pageScale="1" pageWidth="827" pageHeight="1169" math="0" shadow="0">
      <root>
        <mxCell id="0" />
        <mxCell id="1" parent="0" />
        <mxCell id="0LcWwZ6BVPuBse1ZLuUw-1" value="" style="rounded=0;whiteSpace=wrap;html=1;" vertex="1" parent="1">
          <mxGeometry x="130" y="-40" width="1080" height="850" as="geometry" />
        </mxCell>
        <mxCell id="6UzcBRjPHfcHbhN4kPSD-1" value="Клиент(PS)" style="verticalAlign=top;align=left;spacingTop=8;spacingLeft=2;spacingRight=12;shape=cube;size=10;direction=south;fontStyle=4;html=1;whiteSpace=wrap;" parent="1" vertex="1">
          <mxGeometry x="240" y="617.5" width="193" height="135" as="geometry" />
        </mxCell>
        <mxCell id="6UzcBRjPHfcHbhN4kPSD-2" value="Браузер" style="text;align=center;fontStyle=1;verticalAlign=middle;spacingLeft=3;spacingRight=3;strokeColor=none;rotatable=0;points=[[0,0.5],[1,0.5]];portConstraint=eastwest;html=1;" parent="1" vertex="1">
          <mxGeometry x="250" y="585" width="80" height="26" as="geometry" />
        </mxCell>
        <mxCell id="6UzcBRjPHfcHbhN4kPSD-3" value="Сервер" style="verticalAlign=top;align=left;spacingTop=8;spacingLeft=2;spacingRight=12;shape=cube;size=10;direction=south;fontStyle=4;html=1;whiteSpace=wrap;" parent="1" vertex="1">
          <mxGeometry x="410" y="315" width="410" height="120" as="geometry" />
        </mxCell>
        <mxCell id="6UzcBRjPHfcHbhN4kPSD-4" value="Сервер БД" style="verticalAlign=top;align=left;spacingTop=8;spacingLeft=2;spacingRight=12;shape=cube;size=10;direction=south;fontStyle=4;html=1;whiteSpace=wrap;" parent="1" vertex="1">
          <mxGeometry x="697" y="20" width="193" height="135" as="geometry" />
        </mxCell>
        <mxCell id="6UzcBRjPHfcHbhN4kPSD-5" value="" style="verticalAlign=top;align=left;spacingTop=8;spacingLeft=2;spacingRight=12;shape=cube;size=10;direction=south;fontStyle=4;html=1;whiteSpace=wrap;" parent="1" vertex="1">
          <mxGeometry x="753" y="70" width="110" height="71" as="geometry" />
        </mxCell>
        <mxCell id="6UzcBRjPHfcHbhN4kPSD-6" value="БД на MySQL" style="text;align=center;fontStyle=1;verticalAlign=middle;spacingLeft=3;spacingRight=3;strokeColor=none;rotatable=0;points=[[0,0.5],[1,0.5]];portConstraint=eastwest;html=1;" parent="1" vertex="1">
          <mxGeometry x="768" y="96" width="80" height="26" as="geometry" />
        </mxCell>
        <mxCell id="6UzcBRjPHfcHbhN4kPSD-7" value="Веб сервер" style="verticalAlign=top;align=left;spacingTop=8;spacingLeft=2;spacingRight=12;shape=cube;size=10;direction=south;fontStyle=4;html=1;whiteSpace=wrap;" parent="1" vertex="1">
          <mxGeometry x="483" y="335" width="157" height="80" as="geometry" />
        </mxCell>
        <mxCell id="6UzcBRjPHfcHbhN4kPSD-8" value="Apache" style="text;align=center;fontStyle=1;verticalAlign=middle;spacingLeft=3;spacingRight=3;strokeColor=none;rotatable=0;points=[[0,0.5],[1,0.5]];portConstraint=eastwest;html=1;" parent="1" vertex="1">
          <mxGeometry x="540" y="365" width="80" height="26" as="geometry" />
        </mxCell>
        <mxCell id="6UzcBRjPHfcHbhN4kPSD-9" value="{OS = Linux}" style="text;align=center;fontStyle=1;verticalAlign=middle;spacingLeft=3;spacingRight=3;strokeColor=none;rotatable=0;points=[[0,0.5],[1,0.5]];portConstraint=eastwest;html=1;" parent="1" vertex="1">
          <mxGeometry x="697" y="365" width="80" height="26" as="geometry" />
        </mxCell>
        <mxCell id="6UzcBRjPHfcHbhN4kPSD-10" value="" style="endArrow=none;html=1;rounded=0;entryX=0;entryY=0;entryDx=0;entryDy=91.5;entryPerimeter=0;exitX=1.009;exitY=0.838;exitDx=0;exitDy=0;exitPerimeter=0;" parent="1" source="6UzcBRjPHfcHbhN4kPSD-3" target="6UzcBRjPHfcHbhN4kPSD-1" edge="1">
          <mxGeometry width="50" height="50" relative="1" as="geometry">
            <mxPoint x="540" y="660" as="sourcePoint" />
            <mxPoint x="543" y="515" as="targetPoint" />
          </mxGeometry>
        </mxCell>
        <mxCell id="6UzcBRjPHfcHbhN4kPSD-11" value="&lt;font style=&quot;font-size: 15px;&quot;&gt;http/Internet&lt;/font&gt;" style="edgeLabel;html=1;align=center;verticalAlign=middle;resizable=0;points=[];" parent="6UzcBRjPHfcHbhN4kPSD-10" vertex="1" connectable="0">
          <mxGeometry x="-0.2034" y="-3" relative="1" as="geometry">
            <mxPoint as="offset" />
          </mxGeometry>
        </mxCell>
        <mxCell id="6UzcBRjPHfcHbhN4kPSD-12" value="" style="endArrow=none;html=1;rounded=0;entryX=0;entryY=0;entryDx=135;entryDy=101.5;entryPerimeter=0;exitX=-0.014;exitY=0.804;exitDx=0;exitDy=0;exitPerimeter=0;" parent="1" edge="1">
          <mxGeometry width="50" height="50" relative="1" as="geometry">
            <mxPoint x="805" y="313" as="sourcePoint" />
            <mxPoint x="803" y="155" as="targetPoint" />
          </mxGeometry>
        </mxCell>
        <mxCell id="6UzcBRjPHfcHbhN4kPSD-13" value="&lt;font style=&quot;font-size: 15px;&quot;&gt;http/LAN&lt;/font&gt;" style="edgeLabel;html=1;align=center;verticalAlign=middle;resizable=0;points=[];" parent="6UzcBRjPHfcHbhN4kPSD-12" vertex="1" connectable="0">
          <mxGeometry x="-0.2034" y="-3" relative="1" as="geometry">
            <mxPoint as="offset" />
          </mxGeometry>
        </mxCell>
        <mxCell id="Y6x4PYllga0N9CcQdMNU-1" value="Клиент(Android)" style="verticalAlign=top;align=left;spacingTop=8;spacingLeft=2;spacingRight=12;shape=cube;size=10;direction=south;fontStyle=4;html=1;whiteSpace=wrap;" parent="1" vertex="1">
          <mxGeometry x="504" y="617.5" width="193" height="135" as="geometry" />
        </mxCell>
        <mxCell id="Y6x4PYllga0N9CcQdMNU-2" value="Браузер" style="text;align=center;fontStyle=1;verticalAlign=middle;spacingLeft=3;spacingRight=3;strokeColor=none;rotatable=0;points=[[0,0.5],[1,0.5]];portConstraint=eastwest;html=1;" parent="1" vertex="1">
          <mxGeometry x="504" y="591.5" width="80" height="26" as="geometry" />
        </mxCell>
        <mxCell id="Y6x4PYllga0N9CcQdMNU-3" value="" style="endArrow=none;html=1;rounded=0;entryX=0;entryY=0;entryDx=0;entryDy=91.5;entryPerimeter=0;exitX=0;exitY=0;exitDx=120;exitDy=210;exitPerimeter=0;" parent="1" source="6UzcBRjPHfcHbhN4kPSD-3" target="Y6x4PYllga0N9CcQdMNU-1" edge="1">
          <mxGeometry width="50" height="50" relative="1" as="geometry">
            <mxPoint x="579" y="470" as="sourcePoint" />
            <mxPoint x="786" y="549" as="targetPoint" />
          </mxGeometry>
        </mxCell>
        <mxCell id="Y6x4PYllga0N9CcQdMNU-4" value="&lt;font style=&quot;font-size: 15px;&quot;&gt;http/Internet&lt;/font&gt;" style="edgeLabel;html=1;align=center;verticalAlign=middle;resizable=0;points=[];" parent="Y6x4PYllga0N9CcQdMNU-3" vertex="1" connectable="0">
          <mxGeometry x="-0.2034" y="-3" relative="1" as="geometry">
            <mxPoint as="offset" />
          </mxGeometry>
        </mxCell>
        <mxCell id="Y6x4PYllga0N9CcQdMNU-5" value="Клиент(IOS)" style="verticalAlign=top;align=left;spacingTop=8;spacingLeft=2;spacingRight=12;shape=cube;size=10;direction=south;fontStyle=4;html=1;whiteSpace=wrap;" parent="1" vertex="1">
          <mxGeometry x="790" y="614.75" width="193" height="135" as="geometry" />
        </mxCell>
        <mxCell id="Y6x4PYllga0N9CcQdMNU-6" value="Браузер" style="text;align=center;fontStyle=1;verticalAlign=middle;spacingLeft=3;spacingRight=3;strokeColor=none;rotatable=0;points=[[0,0.5],[1,0.5]];portConstraint=eastwest;html=1;" parent="1" vertex="1">
          <mxGeometry x="800" y="588.75" width="80" height="26" as="geometry" />
        </mxCell>
        <mxCell id="Y6x4PYllga0N9CcQdMNU-7" value="" style="endArrow=none;html=1;rounded=0;entryX=0;entryY=0;entryDx=0;entryDy=91.5;entryPerimeter=0;exitX=1.021;exitY=0.163;exitDx=0;exitDy=0;exitPerimeter=0;" parent="1" source="6UzcBRjPHfcHbhN4kPSD-3" target="Y6x4PYllga0N9CcQdMNU-5" edge="1">
          <mxGeometry width="50" height="50" relative="1" as="geometry">
            <mxPoint x="1026" y="439.75" as="sourcePoint" />
            <mxPoint x="1093" y="518.75" as="targetPoint" />
          </mxGeometry>
        </mxCell>
        <mxCell id="Y6x4PYllga0N9CcQdMNU-8" value="&lt;font style=&quot;font-size: 15px;&quot;&gt;http/Internet&lt;/font&gt;" style="edgeLabel;html=1;align=center;verticalAlign=middle;resizable=0;points=[];" parent="Y6x4PYllga0N9CcQdMNU-7" vertex="1" connectable="0">
          <mxGeometry x="-0.2034" y="-3" relative="1" as="geometry">
            <mxPoint as="offset" />
          </mxGeometry>
        </mxCell>
      </root>
    </mxGraphModel>
  </diagram>
  <diagram id="upGhoCAbMg5uAZWXv8CX" name="Страница — 4">
    <mxGraphModel dx="2049" dy="1883" grid="1" gridSize="10" guides="1" tooltips="1" connect="1" arrows="1" fold="1" page="1" pageScale="1" pageWidth="827" pageHeight="1169" math="0" shadow="0">
      <root>
        <mxCell id="0" />
        <mxCell id="1" parent="0" />
        <mxCell id="gUsPahn1EMpO0uTRwlJW-1" value="" style="rounded=0;whiteSpace=wrap;html=1;" vertex="1" parent="1">
          <mxGeometry x="-190" y="-230" width="1160" height="800" as="geometry" />
        </mxCell>
        <mxCell id="dFTLBIlPHrmcD7PNMW2l-2" value="&amp;laquo;Annotation&amp;raquo;&lt;br/&gt;&lt;b&gt;Component&lt;/b&gt;" style="html=1;dropTarget=0;whiteSpace=wrap;" parent="1" vertex="1">
          <mxGeometry x="860" y="750" width="170" height="90" as="geometry" />
        </mxCell>
        <mxCell id="dFTLBIlPHrmcD7PNMW2l-3" value="" style="shape=module;jettyWidth=8;jettyHeight=4;" parent="dFTLBIlPHrmcD7PNMW2l-2" vertex="1">
          <mxGeometry x="1" width="20" height="20" relative="1" as="geometry">
            <mxPoint x="-27" y="7" as="offset" />
          </mxGeometry>
        </mxCell>
        <mxCell id="hy82e9iBSZ4tn3CYeGIe-1" value="&lt;br&gt;Клиент" style="shape=module;align=left;spacingLeft=20;align=center;verticalAlign=top;whiteSpace=wrap;html=1;" parent="1" vertex="1">
          <mxGeometry x="337" y="-115" width="100" height="50" as="geometry" />
        </mxCell>
        <mxCell id="hy82e9iBSZ4tn3CYeGIe-2" value="Обработка данных" style="shape=module;align=left;spacingLeft=20;align=center;verticalAlign=top;whiteSpace=wrap;html=1;" parent="1" vertex="1">
          <mxGeometry x="337" y="75" width="100" height="50" as="geometry" />
        </mxCell>
        <mxCell id="hy82e9iBSZ4tn3CYeGIe-3" value="" style="rounded=0;orthogonalLoop=1;jettySize=auto;html=1;endArrow=halfCircle;endFill=0;endSize=6;strokeWidth=1;sketch=0;exitX=0.629;exitY=1.032;exitDx=0;exitDy=0;exitPerimeter=0;entryX=-0.153;entryY=0.448;entryDx=0;entryDy=0;entryPerimeter=0;" parent="1" source="hy82e9iBSZ4tn3CYeGIe-1" target="hy82e9iBSZ4tn3CYeGIe-5" edge="1">
          <mxGeometry relative="1" as="geometry">
            <mxPoint x="420" y="-10" as="sourcePoint" />
          </mxGeometry>
        </mxCell>
        <mxCell id="hy82e9iBSZ4tn3CYeGIe-4" value="" style="rounded=0;orthogonalLoop=1;jettySize=auto;html=1;endArrow=oval;endFill=0;sketch=0;sourcePerimeterSpacing=0;targetPerimeterSpacing=0;endSize=10;exitX=0.626;exitY=-0.014;exitDx=0;exitDy=0;exitPerimeter=0;entryX=0.105;entryY=0.319;entryDx=0;entryDy=0;entryPerimeter=0;" parent="1" source="hy82e9iBSZ4tn3CYeGIe-2" target="hy82e9iBSZ4tn3CYeGIe-5" edge="1">
          <mxGeometry relative="1" as="geometry">
            <mxPoint x="380" y="-10" as="sourcePoint" />
            <mxPoint x="390" y="-15" as="targetPoint" />
          </mxGeometry>
        </mxCell>
        <mxCell id="hy82e9iBSZ4tn3CYeGIe-5" value="" style="ellipse;whiteSpace=wrap;html=1;align=center;aspect=fixed;fillColor=none;strokeColor=none;resizable=0;perimeter=centerPerimeter;rotatable=0;allowArrows=0;points=[];outlineConnect=1;" parent="1" vertex="1">
          <mxGeometry x="395" y="-15" width="10" height="10" as="geometry" />
        </mxCell>
        <mxCell id="hy82e9iBSZ4tn3CYeGIe-6" value="Проверка срока" style="shape=module;align=left;spacingLeft=20;align=center;verticalAlign=top;whiteSpace=wrap;html=1;" parent="1" vertex="1">
          <mxGeometry x="710" y="75" width="100" height="50" as="geometry" />
        </mxCell>
        <mxCell id="hy82e9iBSZ4tn3CYeGIe-7" value="" style="rounded=0;orthogonalLoop=1;jettySize=auto;html=1;endArrow=halfCircle;endFill=0;endSize=6;strokeWidth=1;sketch=0;exitX=0.998;exitY=0.911;exitDx=0;exitDy=0;exitPerimeter=0;" parent="1" source="hy82e9iBSZ4tn3CYeGIe-2" edge="1">
          <mxGeometry relative="1" as="geometry">
            <mxPoint x="510" y="220" as="sourcePoint" />
            <mxPoint x="500" y="121" as="targetPoint" />
          </mxGeometry>
        </mxCell>
        <mxCell id="hy82e9iBSZ4tn3CYeGIe-8" value="" style="rounded=0;orthogonalLoop=1;jettySize=auto;html=1;endArrow=oval;endFill=0;sketch=0;sourcePerimeterSpacing=0;targetPerimeterSpacing=0;endSize=10;exitX=0.087;exitY=0.897;exitDx=0;exitDy=0;exitPerimeter=0;" parent="1" source="hy82e9iBSZ4tn3CYeGIe-6" edge="1">
          <mxGeometry relative="1" as="geometry">
            <mxPoint x="540" y="255" as="sourcePoint" />
            <mxPoint x="500" y="120" as="targetPoint" />
          </mxGeometry>
        </mxCell>
        <mxCell id="hy82e9iBSZ4tn3CYeGIe-9" value="" style="ellipse;whiteSpace=wrap;html=1;align=center;aspect=fixed;fillColor=none;strokeColor=none;resizable=0;perimeter=centerPerimeter;rotatable=0;allowArrows=0;points=[];outlineConnect=1;" parent="1" vertex="1">
          <mxGeometry x="485" y="175" width="10" height="10" as="geometry" />
        </mxCell>
        <mxCell id="hy82e9iBSZ4tn3CYeGIe-10" value="&lt;br&gt;БД" style="shape=module;align=left;spacingLeft=20;align=center;verticalAlign=top;whiteSpace=wrap;html=1;" parent="1" vertex="1">
          <mxGeometry x="-50" y="-55" width="100" height="50" as="geometry" />
        </mxCell>
        <mxCell id="hy82e9iBSZ4tn3CYeGIe-11" value="" style="rounded=0;orthogonalLoop=1;jettySize=auto;html=1;endArrow=halfCircle;endFill=0;endSize=6;strokeWidth=1;sketch=0;exitX=1;exitY=0.5;exitDx=0;exitDy=0;" parent="1" source="hy82e9iBSZ4tn3CYeGIe-10" target="hy82e9iBSZ4tn3CYeGIe-13" edge="1">
          <mxGeometry relative="1" as="geometry">
            <mxPoint x="20" y="240" as="sourcePoint" />
          </mxGeometry>
        </mxCell>
        <mxCell id="hy82e9iBSZ4tn3CYeGIe-12" value="" style="rounded=0;orthogonalLoop=1;jettySize=auto;html=1;endArrow=oval;endFill=0;sketch=0;sourcePerimeterSpacing=0;targetPerimeterSpacing=0;endSize=10;exitX=0;exitY=0;exitDx=10;exitDy=0;exitPerimeter=0;" parent="1" source="hy82e9iBSZ4tn3CYeGIe-2" target="hy82e9iBSZ4tn3CYeGIe-13" edge="1">
          <mxGeometry relative="1" as="geometry">
            <mxPoint x="361.79999999999995" y="41.15000000000009" as="sourcePoint" />
            <mxPoint x="195" y="47" as="targetPoint" />
          </mxGeometry>
        </mxCell>
        <mxCell id="hy82e9iBSZ4tn3CYeGIe-13" value="" style="ellipse;whiteSpace=wrap;html=1;align=center;aspect=fixed;fillColor=none;strokeColor=none;resizable=0;perimeter=centerPerimeter;rotatable=0;allowArrows=0;points=[];outlineConnect=1;" parent="1" vertex="1">
          <mxGeometry x="185" y="37" width="10" height="10" as="geometry" />
        </mxCell>
        <mxCell id="hy82e9iBSZ4tn3CYeGIe-14" value="&lt;br&gt;Уведомление" style="shape=module;align=left;spacingLeft=20;align=center;verticalAlign=top;whiteSpace=wrap;html=1;" parent="1" vertex="1">
          <mxGeometry x="285" y="370" width="100" height="50" as="geometry" />
        </mxCell>
        <mxCell id="hy82e9iBSZ4tn3CYeGIe-15" value="" style="rounded=0;orthogonalLoop=1;jettySize=auto;html=1;endArrow=halfCircle;endFill=0;endSize=6;strokeWidth=1;sketch=0;exitX=0;exitY=0;exitDx=10;exitDy=0;exitPerimeter=0;" parent="1" source="hy82e9iBSZ4tn3CYeGIe-14" target="hy82e9iBSZ4tn3CYeGIe-17" edge="1">
          <mxGeometry relative="1" as="geometry">
            <mxPoint x="100" y="300" as="sourcePoint" />
          </mxGeometry>
        </mxCell>
        <mxCell id="hy82e9iBSZ4tn3CYeGIe-16" value="" style="rounded=0;orthogonalLoop=1;jettySize=auto;html=1;endArrow=oval;endFill=0;sketch=0;sourcePerimeterSpacing=0;targetPerimeterSpacing=0;endSize=10;exitX=0.5;exitY=1;exitDx=0;exitDy=0;" parent="1" source="hy82e9iBSZ4tn3CYeGIe-10" target="hy82e9iBSZ4tn3CYeGIe-17" edge="1">
          <mxGeometry relative="1" as="geometry">
            <mxPoint x="60" y="300" as="sourcePoint" />
          </mxGeometry>
        </mxCell>
        <mxCell id="hy82e9iBSZ4tn3CYeGIe-17" value="" style="ellipse;whiteSpace=wrap;html=1;align=center;aspect=fixed;fillColor=none;strokeColor=none;resizable=0;perimeter=centerPerimeter;rotatable=0;allowArrows=0;points=[];outlineConnect=1;" parent="1" vertex="1">
          <mxGeometry x="135" y="249" width="10" height="10" as="geometry" />
        </mxCell>
        <mxCell id="hy82e9iBSZ4tn3CYeGIe-18" value="" style="rounded=0;orthogonalLoop=1;jettySize=auto;html=1;endArrow=halfCircle;endFill=0;endSize=6;strokeWidth=1;sketch=0;exitX=0.5;exitY=1;exitDx=0;exitDy=0;" parent="1" source="hy82e9iBSZ4tn3CYeGIe-2" target="hy82e9iBSZ4tn3CYeGIe-20" edge="1">
          <mxGeometry relative="1" as="geometry">
            <mxPoint x="310" y="280" as="sourcePoint" />
          </mxGeometry>
        </mxCell>
        <mxCell id="hy82e9iBSZ4tn3CYeGIe-19" value="" style="rounded=0;orthogonalLoop=1;jettySize=auto;html=1;endArrow=oval;endFill=0;sketch=0;sourcePerimeterSpacing=0;targetPerimeterSpacing=0;endSize=10;exitX=1;exitY=0;exitDx=0;exitDy=0;" parent="1" source="hy82e9iBSZ4tn3CYeGIe-14" target="hy82e9iBSZ4tn3CYeGIe-20" edge="1">
          <mxGeometry relative="1" as="geometry">
            <mxPoint x="270" y="280" as="sourcePoint" />
          </mxGeometry>
        </mxCell>
        <mxCell id="hy82e9iBSZ4tn3CYeGIe-20" value="" style="ellipse;whiteSpace=wrap;html=1;align=center;aspect=fixed;fillColor=none;strokeColor=none;resizable=0;perimeter=centerPerimeter;rotatable=0;allowArrows=0;points=[];outlineConnect=1;" parent="1" vertex="1">
          <mxGeometry x="380" y="275" width="10" height="10" as="geometry" />
        </mxCell>
        <mxCell id="hy82e9iBSZ4tn3CYeGIe-21" value="Данные о документе" style="text;align=center;fontStyle=1;verticalAlign=middle;spacingLeft=3;spacingRight=3;strokeColor=none;rotatable=0;points=[[0,0.5],[1,0.5]];portConstraint=eastwest;html=1;" parent="1" vertex="1">
          <mxGeometry x="150" y="7" width="80" height="26" as="geometry" />
        </mxCell>
        <mxCell id="hy82e9iBSZ4tn3CYeGIe-22" value="Данные о документе" style="text;align=center;fontStyle=1;verticalAlign=middle;spacingLeft=3;spacingRight=3;strokeColor=none;rotatable=0;points=[[0,0.5],[1,0.5]];portConstraint=eastwest;html=1;" parent="1" vertex="1">
          <mxGeometry x="150" y="47" width="80" height="26" as="geometry" />
        </mxCell>
        <mxCell id="hy82e9iBSZ4tn3CYeGIe-23" value="Данные о &lt;br&gt;редактировании &lt;br&gt;документа" style="text;align=center;fontStyle=1;verticalAlign=middle;spacingLeft=3;spacingRight=3;strokeColor=none;rotatable=0;points=[[0,0.5],[1,0.5]];portConstraint=eastwest;html=1;" parent="1" vertex="1">
          <mxGeometry x="150" y="221" width="80" height="26" as="geometry" />
        </mxCell>
        <mxCell id="hy82e9iBSZ4tn3CYeGIe-24" value="Данные о &lt;br&gt;редактировании &lt;br&gt;документа" style="text;align=center;fontStyle=1;verticalAlign=middle;spacingLeft=3;spacingRight=3;strokeColor=none;rotatable=0;points=[[0,0.5],[1,0.5]];portConstraint=eastwest;html=1;" parent="1" vertex="1">
          <mxGeometry x="55" y="259" width="80" height="26" as="geometry" />
        </mxCell>
        <mxCell id="hy82e9iBSZ4tn3CYeGIe-25" value="Сообщение о&lt;br style=&quot;border-color: var(--border-color);&quot;&gt;выполнении" style="text;align=center;fontStyle=1;verticalAlign=middle;spacingLeft=3;spacingRight=3;strokeColor=none;rotatable=0;points=[[0,0.5],[1,0.5]];portConstraint=eastwest;html=1;" parent="1" vertex="1">
          <mxGeometry x="410" y="259" width="80" height="26" as="geometry" />
        </mxCell>
        <mxCell id="hy82e9iBSZ4tn3CYeGIe-26" value="Сообщение о&lt;br style=&quot;border-color: var(--border-color);&quot;&gt;выполнении" style="text;align=center;fontStyle=1;verticalAlign=middle;spacingLeft=3;spacingRight=3;strokeColor=none;rotatable=0;points=[[0,0.5],[1,0.5]];portConstraint=eastwest;html=1;" parent="1" vertex="1">
          <mxGeometry x="310" y="233" width="80" height="26" as="geometry" />
        </mxCell>
        <mxCell id="hy82e9iBSZ4tn3CYeGIe-27" value="Информация о сроке выполнения" style="text;align=center;fontStyle=1;verticalAlign=middle;spacingLeft=3;spacingRight=3;strokeColor=none;rotatable=0;points=[[0,0.5],[1,0.5]];portConstraint=eastwest;html=1;" parent="1" vertex="1">
          <mxGeometry x="520" y="47" width="80" height="26" as="geometry" />
        </mxCell>
        <mxCell id="hy82e9iBSZ4tn3CYeGIe-28" value="Сообщение об истечении срока" style="text;align=center;fontStyle=1;verticalAlign=middle;spacingLeft=3;spacingRight=3;strokeColor=none;rotatable=0;points=[[0,0.5],[1,0.5]];portConstraint=eastwest;html=1;" parent="1" vertex="1">
          <mxGeometry x="520" y="125" width="80" height="26" as="geometry" />
        </mxCell>
        <mxCell id="hy82e9iBSZ4tn3CYeGIe-29" value="" style="rounded=0;orthogonalLoop=1;jettySize=auto;html=1;endArrow=halfCircle;endFill=0;endSize=6;strokeWidth=1;sketch=0;exitX=0.088;exitY=0.088;exitDx=0;exitDy=0;exitPerimeter=0;" parent="1" source="hy82e9iBSZ4tn3CYeGIe-32" edge="1">
          <mxGeometry relative="1" as="geometry">
            <mxPoint x="495" y="90" as="sourcePoint" />
            <mxPoint x="500" y="79" as="targetPoint" />
          </mxGeometry>
        </mxCell>
        <mxCell id="hy82e9iBSZ4tn3CYeGIe-30" value="" style="rounded=0;orthogonalLoop=1;jettySize=auto;html=1;endArrow=oval;endFill=0;sketch=0;sourcePerimeterSpacing=0;targetPerimeterSpacing=0;endSize=10;exitX=1.003;exitY=0.088;exitDx=0;exitDy=0;exitPerimeter=0;" parent="1" source="hy82e9iBSZ4tn3CYeGIe-2" target="hy82e9iBSZ4tn3CYeGIe-32" edge="1">
          <mxGeometry relative="1" as="geometry">
            <mxPoint x="455" y="90" as="sourcePoint" />
          </mxGeometry>
        </mxCell>
        <mxCell id="hy82e9iBSZ4tn3CYeGIe-31" value="" style="rounded=0;orthogonalLoop=1;jettySize=auto;html=1;endArrow=halfCircle;endFill=0;endSize=6;strokeWidth=1;sketch=0;exitX=0.088;exitY=0.088;exitDx=0;exitDy=0;exitPerimeter=0;entryX=0.862;entryY=0.884;entryDx=0;entryDy=0;entryPerimeter=0;" parent="1" source="hy82e9iBSZ4tn3CYeGIe-6" target="hy82e9iBSZ4tn3CYeGIe-32" edge="1">
          <mxGeometry relative="1" as="geometry">
            <mxPoint x="719" y="79" as="sourcePoint" />
            <mxPoint x="500" y="79" as="targetPoint" />
          </mxGeometry>
        </mxCell>
        <mxCell id="hy82e9iBSZ4tn3CYeGIe-32" value="" style="ellipse;whiteSpace=wrap;html=1;align=center;aspect=fixed;fillColor=none;strokeColor=none;resizable=0;perimeter=centerPerimeter;rotatable=0;allowArrows=0;points=[];outlineConnect=1;" parent="1" vertex="1">
          <mxGeometry x="495" y="73" width="10" height="10" as="geometry" />
        </mxCell>
        <mxCell id="hy82e9iBSZ4tn3CYeGIe-33" value="Данные о документе" style="text;html=1;strokeColor=none;fillColor=none;align=center;verticalAlign=middle;whiteSpace=wrap;rounded=0;" parent="1" vertex="1">
          <mxGeometry x="420" y="-25" width="60" height="30" as="geometry" />
        </mxCell>
        <mxCell id="hy82e9iBSZ4tn3CYeGIe-34" value="Данные о документе" style="text;html=1;strokeColor=none;fillColor=none;align=center;verticalAlign=middle;whiteSpace=wrap;rounded=0;" parent="1" vertex="1">
          <mxGeometry x="320" y="-25" width="60" height="30" as="geometry" />
        </mxCell>
      </root>
    </mxGraphModel>
  </diagram>
</mxfile>
